<?xml version="1.0" encoding="utf-8"?>
<!-- Generator: Adobe Illustrator 19.1.0, SVG Export Plug-In . SVG Version: 6.00 Build 0)  -->
<svg version="1.1" id="Layer_1" xmlns="http://www.w3.org/2000/svg" xmlns:xlink="http://www.w3.org/1999/xlink" x="0px" y="0px"
	 viewBox="0 0 30 30" style="enable-background:new 0 0 30 30;" xml:space="preserve">
<style type="text/css">
	.st0{fill:#7C0505;}
	.st1{fill:#FCFCFC;}
	.st2{font-family:'FZHCJW--GB1-0';}
	.st3{font-size:12px;}
</style>
<path class="st0" d="M9.3,5.4C8.2,5,5.5,7.6,5,10.6c-0.3,1.9,0.5,2.6,0.4,5.9c0,0.6,0,1.1,0,2.2c0,2,0.1,2.4,0.4,2.8
	c0.5,0.6,1.3,1.1,2.1,0.9c0.8-0.2,1.1-1.2,1.6-2.8c0.3-1,0.3-1.4,0.6-2.9c0.7-3.4,1-3.3,0.9-4.4c-0.1-1.6-0.7-1.7-0.6-3.4
	c0-0.7,0.2-1.3-0.1-2C10.2,6.5,9.9,5.6,9.3,5.4z"/>
<text transform="matrix(1 0 0 1 1.6469 17.73)" class="st1 st2 st3">费</text>
</svg>
